{"accessors":[{"bufferView":0,"byteOffset":0,"componentType":5123,"count":486,"max":[485],"min":[0],"name":"buffer-0-accessor-indices-buffer-0-mesh-0","type":"SCALAR"},{"bufferView":2,"byteOffset":0,"componentType":5126,"count":486,"max":[1703915.375,959129.6875,102566.5],"min":[0,0,-249033.515625],"name":"buffer-0-accessor-position-buffer-0-mesh-0","type":"VEC3"},{"bufferView":2,"byteOffset":5832,"componentType":5126,"count":486,"max":[0.9927999973297119,0,0.9927999973297119],"min":[-0.9927999973297119,-1,-0.9927999973297119],"name":"buffer-0-accessor-normal-buffer-0-mesh-0","type":"VEC3"},{"bufferView":1,"byteOffset":0,"componentType":5126,"count":486,"max":[1.007799983024597,0.1586000025272369],"min":[-0.490200012922287,-1.126399993896484],"name":"buffer-0-accessor-texcoord-buffer-0-mesh-0","type":"VEC2"},{"bufferView":3,"byteOffset":0,"componentType":5126,"count":0,"max":[0,0,0,0],"min":[0,0,0,0],"name":"buffer-0-accessor-color-buffer-0-mesh-0","type":"VEC4"},{"bufferView":0,"byteOffset":972,"componentType":5123,"count":894,"max":[893],"min":[0],"name":"buffer-0-accessor-indices-buffer-0-mesh-0","type":"SCALAR"},{"bufferView":2,"byteOffset":11664,"componentType":5126,"count":894,"max":[1703915.375,1759278,102566.484375],"min":[0,0,-249033.515625],"name":"buffer-0-accessor-position-buffer-0-mesh-0","type":"VEC3"},{"bufferView":2,"byteOffset":22392,"componentType":5126,"count":894,"max":[0.9927999973297119,1,0.9927999973297119],"min":[-0.9927999973297119,0,-0.9927999973297119],"name":"buffer-0-accessor-normal-buffer-0-mesh-0","type":"VEC3"},{"bufferView":1,"byteOffset":3888,"componentType":5126,"count":894,"max":[1.015200018882751,0],"min":[-0.01600000075995922,-3.002700090408325],"name":"buffer-0-accessor-texcoord-buffer-0-mesh-0","type":"VEC2"},{"bufferView":3,"byteOffset":0,"componentType":5126,"count":0,"max":[0,0,0,0],"min":[0,0,0,0],"name":"buffer-0-accessor-color-buffer-0-mesh-0","type":"VEC4"},{"bufferView":0,"byteOffset":2760,"componentType":5123,"count":240,"max":[239],"min":[0],"name":"buffer-0-accessor-indices-buffer-0-mesh-0","type":"SCALAR"},{"bufferView":2,"byteOffset":33120,"componentType":5126,"count":240,"max":[1703915.375,1340711.125,102566.5],"min":[0,0,-249033.515625],"name":"buffer-0-accessor-position-buffer-0-mesh-0","type":"VEC3"},{"bufferView":2,"byteOffset":36000,"componentType":5126,"count":240,"max":[0.9927999973297119,0,0.9927999973297119],"min":[-0.9927999973297119,0,-0.9927999973297119],"name":"buffer-0-accessor-normal-buffer-0-mesh-0","type":"VEC3"},{"bufferView":1,"byteOffset":11040,"componentType":5126,"count":240,"max":[0.9817000031471252,0],"min":[0,-0.6498000025749207],"name":"buffer-0-accessor-texcoord-buffer-0-mesh-0","type":"VEC2"},{"bufferView":3,"byteOffset":0,"componentType":5126,"count":0,"max":[0,0,0,0],"min":[0,0,0,0],"name":"buffer-0-accessor-color-buffer-0-mesh-0","type":"VEC4"},{"bufferView":0,"byteOffset":3240,"componentType":5123,"count":156,"max":[155],"min":[0],"name":"buffer-0-accessor-indices-buffer-0-mesh-0","type":"SCALAR"},{"bufferView":2,"byteOffset":38880,"componentType":5126,"count":156,"max":[1434112.25,1034642.25,0],"min":[0,-5422.125,-95823],"name":"buffer-0-accessor-position-buffer-0-mesh-0","type":"VEC3"},{"bufferView":2,"byteOffset":40752,"componentType":5126,"count":156,"max":[0.9659000039100647,1,0.9659000039100647],"min":[-0.9659000039100647,-1,-0.9659000039100647],"name":"buffer-0-accessor-normal-buffer-0-mesh-0","type":"VEC3"},{"bufferView":1,"byteOffset":12960,"componentType":5126,"count":156,"max":[1,13.83040046691895],"min":[0,-1],"name":"buffer-0-accessor-texcoord-buffer-0-mesh-0","type":"VEC2"},{"bufferView":3,"byteOffset":0,"componentType":5126,"count":0,"max":[0,0,0,0],"min":[0,0,0,0],"name":"buffer-0-accessor-color-buffer-0-mesh-0","type":"VEC4"}],"asset":{"generator":"Obj2GltfConverter","version":"2.0"},"bufferViews":[{"buffer":0,"byteLength":3552,"byteOffset":0,"byteStride":0,"name":"buffer-0-bufferview-ushort","target":34963},{"buffer":0,"byteLength":14208,"byteOffset":3552,"byteStride":8,"name":"buffer-0-bufferview-vec2","target":34962},{"buffer":0,"byteLength":42624,"byteOffset":17760,"byteStride":12,"name":"buffer-0-bufferview-vec3","target":34962},{"buffer":0,"byteLength":1,"byteOffset":0,"name":"buffer-0-bufferview-vec4"}],"buffers":[{"byteLength":60384,"name":"buffer-0","uri":"data:application/octet-stream;base64,"}],"materials":[{"alphaMode":"OPAQUE","doubleSided":true,"name":"03___Default","pbrMetallicRoughness":{"baseColorFactor":[0.1216,0.6078,0.0235,1],"metallicFactor":0,"roughnessFactor":0.9699476628648295}},{"alphaMode":"OPAQUE","doubleSided":true,"name":"_crayfishdiffuse","pbrMetallicRoughness":{"baseColorFactor":[1,0,0,1],"metallicFactor":0,"roughnessFactor":0.9124375732201923}},{"alphaMode":"OPAQUE","doubleSided":true,"name":"02___Default","pbrMetallicRoughness":{"baseColorFactor":[0.8196,0.3373,0.0118,1],"metallicFactor":0,"roughnessFactor":0.9699476628648295}},{"alphaMode":"OPAQUE","doubleSided":true,"name":"07___Default","pbrMetallicRoughness":{"baseColorFactor":[0.6941,0.4353,0.2275,1],"metallicFactor":0,"roughnessFactor":0.9699476628648295}}],"meshes":[{"name":"buffer-0-mesh-0","primitives":[{"attributes":{"NORMAL":2,"POSITION":1,"TEXCOORD_0":3},"indices":0,"material":0,"mode":4},{"attributes":{"NORMAL":7,"POSITION":6,"TEXCOORD_0":8},"indices":5,"material":1,"mode":4},{"attributes":{"NORMAL":12,"POSITION":11,"TEXCOORD_0":13},"indices":10,"material":2,"mode":4},{"attributes":{"NORMAL":17,"POSITION":16,"TEXCOORD_0":18},"indices":15,"material":3,"mode":4}]}],"nodes":[{"mesh":0,"name":"node-0"}],"scenes":[{"name":"scene-0","nodes":[0]}]}